<mxfile host="app.diagrams.net" agent="Mozilla/5.0 (Windows NT 10.0; Win64; x64) AppleWebKit/537.36 (KHTML, like Gecko) Chrome/129.0.0.0 Safari/537.36 Edg/129.0.0.0" version="24.7.17">
  <diagram name="Page-1" id="S5yGAk-SD8ZDdzLFcuOw">
    <mxGraphModel dx="1666" dy="749" grid="1" gridSize="10" guides="1" tooltips="1" connect="1" arrows="1" fold="1" page="1" pageScale="1" pageWidth="850" pageHeight="1100" math="0" shadow="0">
      <root>
        <mxCell id="0" />
        <mxCell id="1" parent="0" />
        <mxCell id="9uZE7dbRXrVABVmHMERy-4" value="" style="rounded=0;whiteSpace=wrap;html=1;" parent="1" vertex="1">
          <mxGeometry x="50" y="1140" width="260" height="180" as="geometry" />
        </mxCell>
        <mxCell id="pL6kQiFRU2sMv0eJaDet-1" value="input_forcing.f90" style="rounded=1;whiteSpace=wrap;html=1;fillColor=#FFCCCC;" parent="1" vertex="1">
          <mxGeometry x="373" y="30" width="127" height="40" as="geometry" />
        </mxCell>
        <mxCell id="pL6kQiFRU2sMv0eJaDet-2" value="&lt;div&gt;&lt;font size=&quot;1&quot;&gt;Modules\io_modules\mesh_io.F90: open_input_file&lt;/font&gt;&lt;/div&gt;&lt;div&gt;&lt;font size=&quot;1&quot;&gt;Modules\io_modules\mesh_io.F90: validate_input_file_spatial_reference&lt;/font&gt;&lt;/div&gt;&lt;div&gt;&lt;font size=&quot;1&quot;&gt;Modules\io_modules\mesh_io.F90: read_file_fields_to_buffer&lt;/font&gt;&lt;/div&gt;&lt;div&gt;&lt;font size=&quot;1&quot;&gt;Modules\io_modules\field_utilities.f90: cleanup_field_list&lt;/font&gt;&lt;/div&gt;&lt;div&gt;&lt;font size=&quot;1&quot;&gt;Modules\io_modules\mesh_io.F90: activate_variables_from_field_list&lt;/font&gt;&lt;/div&gt;" style="rounded=0;whiteSpace=wrap;html=1;align=left;" parent="1" vertex="1">
          <mxGeometry y="20" width="340" height="100" as="geometry" />
        </mxCell>
        <mxCell id="9gJv6co2nd8RYt-IVOKr-2" value="" style="edgeStyle=orthogonalEdgeStyle;rounded=0;orthogonalLoop=1;jettySize=auto;html=1;entryX=0.5;entryY=0;entryDx=0;entryDy=0;entryPerimeter=0;" parent="1" source="pL6kQiFRU2sMv0eJaDet-3" target="9gJv6co2nd8RYt-IVOKr-3" edge="1">
          <mxGeometry relative="1" as="geometry">
            <mxPoint x="510.6999999999998" y="205" as="targetPoint" />
          </mxGeometry>
        </mxCell>
        <mxCell id="pL6kQiFRU2sMv0eJaDet-3" value="open_input_forcing_files(error_status)" style="rounded=1;whiteSpace=wrap;html=1;fontStyle=1" parent="1" vertex="1">
          <mxGeometry x="386.48" y="110" width="248.51" height="30" as="geometry" />
        </mxCell>
        <mxCell id="9gJv6co2nd8RYt-IVOKr-24" value="" style="edgeStyle=orthogonalEdgeStyle;rounded=0;orthogonalLoop=1;jettySize=auto;html=1;entryX=0.5;entryY=0;entryDx=0;entryDy=0;" parent="1" source="9gJv6co2nd8RYt-IVOKr-3" target="9gJv6co2nd8RYt-IVOKr-25" edge="1">
          <mxGeometry relative="1" as="geometry">
            <mxPoint x="579" y="1000" as="targetPoint" />
          </mxGeometry>
        </mxCell>
        <mxCell id="9gJv6co2nd8RYt-IVOKr-25" value="&lt;span style=&quot;font-weight: 400;&quot;&gt;end subroutine&lt;/span&gt;" style="whiteSpace=wrap;html=1;fillColor=#FFFFFF;rounded=1;fontStyle=1;" parent="1" vertex="1">
          <mxGeometry x="450.63" y="960" width="120" height="40" as="geometry" />
        </mxCell>
        <mxCell id="9gJv6co2nd8RYt-IVOKr-27" value="" style="group" parent="1" vertex="1" connectable="0">
          <mxGeometry x="284" y="179" width="453.26" height="751" as="geometry" />
        </mxCell>
        <mxCell id="9gJv6co2nd8RYt-IVOKr-3" value="" style="rounded=0;whiteSpace=wrap;html=1;" parent="9gJv6co2nd8RYt-IVOKr-27" vertex="1">
          <mxGeometry width="453.26" height="751" as="geometry" />
        </mxCell>
        <mxCell id="9gJv6co2nd8RYt-IVOKr-6" value="" style="edgeStyle=orthogonalEdgeStyle;rounded=0;orthogonalLoop=1;jettySize=auto;html=1;" parent="9gJv6co2nd8RYt-IVOKr-27" source="9gJv6co2nd8RYt-IVOKr-4" target="9gJv6co2nd8RYt-IVOKr-5" edge="1">
          <mxGeometry relative="1" as="geometry" />
        </mxCell>
        <mxCell id="9gJv6co2nd8RYt-IVOKr-4" value="&lt;span style=&quot;font-weight: normal;&quot;&gt;Pre-allocate memory for the data fields in the file based on file format. Where&lt;/span&gt;&lt;div&gt;&lt;span style=&quot;font-weight: 400;&quot;&gt;io_file_met -&amp;gt; 1D allocation&lt;/span&gt;&lt;br&gt;&lt;/div&gt;&lt;div&gt;&lt;span style=&quot;font-weight: 400;&quot;&gt;io_file_txt_delimited -&amp;gt; 2D allocation&lt;/span&gt;&lt;br&gt;&lt;/div&gt;&lt;div&gt;&lt;span style=&quot;background-color: initial; font-weight: 400;&quot;&gt;io_file_seq&lt;/span&gt;&lt;span style=&quot;font-weight: 400;&quot;&gt;-&amp;gt; 2D allocation&lt;/span&gt;&lt;span style=&quot;font-weight: 400;&quot;&gt;&lt;br&gt;&lt;/span&gt;&lt;/div&gt;" style="rounded=1;whiteSpace=wrap;html=1;fontStyle=1" parent="9gJv6co2nd8RYt-IVOKr-27" vertex="1">
          <mxGeometry x="34.08000000000004" y="39.01298701298701" width="252.52" height="87.77922077922078" as="geometry" />
        </mxCell>
        <mxCell id="9gJv6co2nd8RYt-IVOKr-8" value="" style="edgeStyle=orthogonalEdgeStyle;rounded=0;orthogonalLoop=1;jettySize=auto;html=1;" parent="9gJv6co2nd8RYt-IVOKr-27" source="9gJv6co2nd8RYt-IVOKr-5" target="9gJv6co2nd8RYt-IVOKr-7" edge="1">
          <mxGeometry relative="1" as="geometry" />
        </mxCell>
        <mxCell id="9gJv6co2nd8RYt-IVOKr-5" value="&amp;nbsp;call open_input_file(forcing_files(i)%file)" style="whiteSpace=wrap;html=1;rounded=1;fontStyle=1;fillColor=#FFE599;" parent="9gJv6co2nd8RYt-IVOKr-27" vertex="1">
          <mxGeometry x="40.64000000000004" y="156.05194805194805" width="239.39" height="39.01298701298701" as="geometry" />
        </mxCell>
        <mxCell id="9gJv6co2nd8RYt-IVOKr-10" value="" style="edgeStyle=orthogonalEdgeStyle;rounded=0;orthogonalLoop=1;jettySize=auto;html=1;" parent="9gJv6co2nd8RYt-IVOKr-27" source="9gJv6co2nd8RYt-IVOKr-7" target="9gJv6co2nd8RYt-IVOKr-9" edge="1">
          <mxGeometry relative="1" as="geometry" />
        </mxCell>
        <mxCell id="9gJv6co2nd8RYt-IVOKr-7" value="call validate_input_file_spatial_reference (forcing_files(i)%file)" style="whiteSpace=wrap;html=1;rounded=1;fontStyle=1;fillColor=#FFE599;" parent="9gJv6co2nd8RYt-IVOKr-27" vertex="1">
          <mxGeometry x="36.210000000000036" y="224.32467532467533" width="248.26" height="48.76623376623377" as="geometry" />
        </mxCell>
        <mxCell id="9gJv6co2nd8RYt-IVOKr-12" value="" style="edgeStyle=orthogonalEdgeStyle;rounded=0;orthogonalLoop=1;jettySize=auto;html=1;" parent="9gJv6co2nd8RYt-IVOKr-27" source="9gJv6co2nd8RYt-IVOKr-9" target="9gJv6co2nd8RYt-IVOKr-11" edge="1">
          <mxGeometry relative="1" as="geometry" />
        </mxCell>
        <mxCell id="9gJv6co2nd8RYt-IVOKr-9" value="call read_file_fields_to_buffer (forcing_files(i)%file" style="whiteSpace=wrap;html=1;rounded=1;fontStyle=1;fillColor=#FFE599;" parent="9gJv6co2nd8RYt-IVOKr-27" vertex="1">
          <mxGeometry x="64.74000000000001" y="292.5974025974026" width="191.2" height="48.76623376623377" as="geometry" />
        </mxCell>
        <mxCell id="9gJv6co2nd8RYt-IVOKr-14" value="" style="edgeStyle=orthogonalEdgeStyle;rounded=0;orthogonalLoop=1;jettySize=auto;html=1;" parent="9gJv6co2nd8RYt-IVOKr-27" source="9gJv6co2nd8RYt-IVOKr-11" target="9gJv6co2nd8RYt-IVOKr-13" edge="1">
          <mxGeometry relative="1" as="geometry" />
        </mxCell>
        <mxCell id="9gJv6co2nd8RYt-IVOKr-11" value="&lt;span style=&quot;font-weight: normal;&quot;&gt;Loop over file fields and&lt;/span&gt;&lt;div&gt;&lt;span style=&quot;font-weight: normal;&quot;&gt;deactivate Non-Temporal Fields&lt;/span&gt;&lt;br&gt;&lt;/div&gt;" style="whiteSpace=wrap;html=1;rounded=1;fontStyle=1;" parent="9gJv6co2nd8RYt-IVOKr-27" vertex="1">
          <mxGeometry x="64.74000000000001" y="370.62337662337666" width="193.32" height="48.76623376623377" as="geometry" />
        </mxCell>
        <mxCell id="9gJv6co2nd8RYt-IVOKr-16" value="" style="edgeStyle=orthogonalEdgeStyle;rounded=0;orthogonalLoop=1;jettySize=auto;html=1;" parent="9gJv6co2nd8RYt-IVOKr-27" source="9gJv6co2nd8RYt-IVOKr-13" target="9gJv6co2nd8RYt-IVOKr-15" edge="1">
          <mxGeometry relative="1" as="geometry" />
        </mxCell>
        <mxCell id="9gJv6co2nd8RYt-IVOKr-13" value="call cleanup_field_list (forcing_files(i)%file%fields&lt;div&gt;call create_mapped_output_from_field_list(forcing_files(i)%fields)&lt;br&gt;&lt;/div&gt;" style="whiteSpace=wrap;html=1;rounded=1;fontStyle=1;fillColor=#FFE599;" parent="9gJv6co2nd8RYt-IVOKr-27" vertex="1">
          <mxGeometry x="25" y="443.77" width="385" height="56.23" as="geometry" />
        </mxCell>
        <mxCell id="9gJv6co2nd8RYt-IVOKr-18" value="" style="edgeStyle=orthogonalEdgeStyle;rounded=0;orthogonalLoop=1;jettySize=auto;html=1;" parent="9gJv6co2nd8RYt-IVOKr-27" source="9gJv6co2nd8RYt-IVOKr-15" target="9gJv6co2nd8RYt-IVOKr-17" edge="1">
          <mxGeometry relative="1" as="geometry" />
        </mxCell>
        <mxCell id="9gJv6co2nd8RYt-IVOKr-15" value="call activate_variables_from_field_list (forcing_files(i)%file%fields" style="whiteSpace=wrap;html=1;rounded=1;fontStyle=1;fillColor=#FFE599;" parent="9gJv6co2nd8RYt-IVOKr-27" vertex="1">
          <mxGeometry x="60" y="516.922077922078" width="202.8" height="58.519480519480524" as="geometry" />
        </mxCell>
        <mxCell id="9gJv6co2nd8RYt-IVOKr-20" value="" style="edgeStyle=orthogonalEdgeStyle;rounded=0;orthogonalLoop=1;jettySize=auto;html=1;" parent="9gJv6co2nd8RYt-IVOKr-27" source="9gJv6co2nd8RYt-IVOKr-17" target="9gJv6co2nd8RYt-IVOKr-19" edge="1">
          <mxGeometry relative="1" as="geometry" />
        </mxCell>
        <mxCell id="9gJv6co2nd8RYt-IVOKr-21" value="Yes" style="edgeLabel;html=1;align=center;verticalAlign=middle;resizable=0;points=[];" parent="9gJv6co2nd8RYt-IVOKr-20" vertex="1" connectable="0">
          <mxGeometry x="-0.5646" y="3" relative="1" as="geometry">
            <mxPoint as="offset" />
          </mxGeometry>
        </mxCell>
        <mxCell id="9gJv6co2nd8RYt-IVOKr-17" value="Temporal interpolation enabled" style="rhombus;whiteSpace=wrap;html=1;rounded=1;fontStyle=1;fillColor=#F19C99;" parent="9gJv6co2nd8RYt-IVOKr-27" vertex="1">
          <mxGeometry x="73.46000000000004" y="604.7012987012987" width="174.34" height="78.02597402597402" as="geometry" />
        </mxCell>
        <mxCell id="9gJv6co2nd8RYt-IVOKr-19" value="&lt;span style=&quot;font-weight: normal;&quot;&gt;1. Set flag for the file&lt;/span&gt;&lt;div&gt;&lt;span style=&quot;font-weight: normal;&quot;&gt;2.&amp;nbsp;Pre-calculate Interpolation Weights for the time interval&lt;/span&gt;&lt;/div&gt;&lt;div&gt;&lt;span style=&quot;font-weight: normal;&quot;&gt;3.&amp;nbsp;Allocate field variables&lt;/span&gt;&lt;/div&gt;" style="whiteSpace=wrap;html=1;fillColor=#FFFFFF;rounded=1;fontStyle=1;" parent="9gJv6co2nd8RYt-IVOKr-27" vertex="1">
          <mxGeometry x="284.47" y="577.8798701298701" width="140" height="131.66883116883116" as="geometry" />
        </mxCell>
        <mxCell id="9gJv6co2nd8RYt-IVOKr-22" value="do i = 1, size(forcing_files)" style="text;html=1;align=center;verticalAlign=middle;whiteSpace=wrap;rounded=0;" parent="9gJv6co2nd8RYt-IVOKr-27" vertex="1">
          <mxGeometry y="9.753246753246753" width="176.6" height="19.506493506493506" as="geometry" />
        </mxCell>
        <mxCell id="9uZE7dbRXrVABVmHMERy-1" value="get_start_date_components_from_forcing_files(year, month, day, jday, hour, minutes, error_status)" style="rounded=1;whiteSpace=wrap;html=1;fontStyle=1" parent="1" vertex="1">
          <mxGeometry x="30" y="1060" width="310" height="50" as="geometry" />
        </mxCell>
        <mxCell id="9uZE7dbRXrVABVmHMERy-8" value="" style="edgeStyle=orthogonalEdgeStyle;rounded=0;orthogonalLoop=1;jettySize=auto;html=1;" parent="1" source="9uZE7dbRXrVABVmHMERy-2" target="9uZE7dbRXrVABVmHMERy-7" edge="1">
          <mxGeometry relative="1" as="geometry" />
        </mxCell>
        <mxCell id="9uZE7dbRXrVABVmHMERy-2" value="&lt;span style=&quot;font-weight: normal;&quot;&gt;Check forcing file start date&lt;/span&gt;" style="whiteSpace=wrap;html=1;rounded=1;fontStyle=1;" parent="1" vertex="1">
          <mxGeometry x="106.86999999999999" y="1170" width="156.25" height="40" as="geometry" />
        </mxCell>
        <mxCell id="9uZE7dbRXrVABVmHMERy-7" value="&lt;span style=&quot;font-weight: normal;&quot;&gt;if forcing file start date is later than the provided components -&amp;gt;&lt;/span&gt;&lt;div&gt;&lt;span style=&quot;font-weight: normal;&quot;&gt;set the given components as the forcing file start date&lt;/span&gt;&lt;/div&gt;" style="whiteSpace=wrap;html=1;rounded=1;fontStyle=1;" parent="1" vertex="1">
          <mxGeometry x="81.26" y="1230" width="207.5" height="80" as="geometry" />
        </mxCell>
        <mxCell id="9uZE7dbRXrVABVmHMERy-9" value="&lt;span style=&quot;font-weight: 400;&quot;&gt;end subroutine&lt;/span&gt;" style="whiteSpace=wrap;html=1;fillColor=#FFFFFF;rounded=1;fontStyle=1;" parent="1" vertex="1">
          <mxGeometry x="119.99999999999999" y="1340" width="120" height="40" as="geometry" />
        </mxCell>
        <mxCell id="9uZE7dbRXrVABVmHMERy-5" value="do i = 1, size(forcing_files)" style="text;html=1;align=center;verticalAlign=middle;whiteSpace=wrap;rounded=0;" parent="1" vertex="1">
          <mxGeometry x="50" y="1140" width="160" height="30" as="geometry" />
        </mxCell>
        <mxCell id="9uZE7dbRXrVABVmHMERy-10" style="edgeStyle=orthogonalEdgeStyle;rounded=0;orthogonalLoop=1;jettySize=auto;html=1;entryX=0.844;entryY=0.033;entryDx=0;entryDy=0;entryPerimeter=0;" parent="1" source="9uZE7dbRXrVABVmHMERy-1" target="9uZE7dbRXrVABVmHMERy-5" edge="1">
          <mxGeometry relative="1" as="geometry" />
        </mxCell>
        <mxCell id="9uZE7dbRXrVABVmHMERy-11" style="edgeStyle=orthogonalEdgeStyle;rounded=0;orthogonalLoop=1;jettySize=auto;html=1;entryX=0.5;entryY=0;entryDx=0;entryDy=0;" parent="1" source="9uZE7dbRXrVABVmHMERy-4" target="9uZE7dbRXrVABVmHMERy-9" edge="1">
          <mxGeometry relative="1" as="geometry" />
        </mxCell>
        <mxCell id="GLNDbX2-uQOJpAZanGDr-1" value="" style="rounded=0;whiteSpace=wrap;html=1;" vertex="1" parent="1">
          <mxGeometry x="20" y="1390" width="1330" height="760" as="geometry" />
        </mxCell>
        <mxCell id="GLNDbX2-uQOJpAZanGDr-2" value="skip_to_first_forcing_record(error_status)" style="rounded=1;whiteSpace=wrap;html=1;fontStyle=1" vertex="1" parent="1">
          <mxGeometry x="185" y="1421" width="270" height="50" as="geometry" />
        </mxCell>
        <mxCell id="GLNDbX2-uQOJpAZanGDr-3" style="edgeStyle=orthogonalEdgeStyle;rounded=0;orthogonalLoop=1;jettySize=auto;html=1;" edge="1" parent="1" source="GLNDbX2-uQOJpAZanGDr-4" target="GLNDbX2-uQOJpAZanGDr-7">
          <mxGeometry relative="1" as="geometry" />
        </mxCell>
        <mxCell id="GLNDbX2-uQOJpAZanGDr-4" value="&lt;span style=&quot;font-weight: 400;&quot;&gt;Get simulation start time&lt;/span&gt;" style="whiteSpace=wrap;html=1;rounded=1;fontStyle=1;" vertex="1" parent="1">
          <mxGeometry x="245.63" y="1501" width="148.74" height="30" as="geometry" />
        </mxCell>
        <mxCell id="GLNDbX2-uQOJpAZanGDr-5" value="&lt;span style=&quot;font-weight: 400;&quot;&gt;end subroutine&lt;/span&gt;" style="whiteSpace=wrap;html=1;fillColor=#FFFFFF;rounded=1;fontStyle=1;" vertex="1" parent="1">
          <mxGeometry x="260" y="2045" width="120" height="40" as="geometry" />
        </mxCell>
        <mxCell id="GLNDbX2-uQOJpAZanGDr-6" style="edgeStyle=orthogonalEdgeStyle;rounded=0;orthogonalLoop=1;jettySize=auto;html=1;entryX=0.5;entryY=0;entryDx=0;entryDy=0;" edge="1" parent="1" source="GLNDbX2-uQOJpAZanGDr-2" target="GLNDbX2-uQOJpAZanGDr-4">
          <mxGeometry relative="1" as="geometry">
            <mxPoint x="267.54999999999995" y="1501.99" as="targetPoint" />
          </mxGeometry>
        </mxCell>
        <mxCell id="GLNDbX2-uQOJpAZanGDr-7" value="" style="rounded=0;whiteSpace=wrap;html=1;" vertex="1" parent="1">
          <mxGeometry x="30" y="1555" width="580" height="460" as="geometry" />
        </mxCell>
        <mxCell id="GLNDbX2-uQOJpAZanGDr-8" style="edgeStyle=orthogonalEdgeStyle;rounded=0;orthogonalLoop=1;jettySize=auto;html=1;" edge="1" parent="1" source="GLNDbX2-uQOJpAZanGDr-9" target="GLNDbX2-uQOJpAZanGDr-14">
          <mxGeometry relative="1" as="geometry" />
        </mxCell>
        <mxCell id="GLNDbX2-uQOJpAZanGDr-9" value="&lt;span style=&quot;font-weight: normal;&quot;&gt;Check forcing file start date&lt;/span&gt;" style="whiteSpace=wrap;html=1;rounded=1;fontStyle=1;" vertex="1" parent="1">
          <mxGeometry x="97.38999999999993" y="1585" width="166.13" height="26" as="geometry" />
        </mxCell>
        <mxCell id="GLNDbX2-uQOJpAZanGDr-10" value="do i = 1, size(forcing_files)" style="text;html=1;align=center;verticalAlign=middle;whiteSpace=wrap;rounded=0;" vertex="1" parent="1">
          <mxGeometry x="30" y="1555" width="160" height="30" as="geometry" />
        </mxCell>
        <mxCell id="GLNDbX2-uQOJpAZanGDr-11" value="" style="edgeStyle=orthogonalEdgeStyle;rounded=0;orthogonalLoop=1;jettySize=auto;html=1;" edge="1" parent="1" source="GLNDbX2-uQOJpAZanGDr-14" target="GLNDbX2-uQOJpAZanGDr-15">
          <mxGeometry relative="1" as="geometry" />
        </mxCell>
        <mxCell id="GLNDbX2-uQOJpAZanGDr-12" value="True" style="edgeLabel;html=1;align=center;verticalAlign=middle;resizable=0;points=[];" vertex="1" connectable="0" parent="GLNDbX2-uQOJpAZanGDr-11">
          <mxGeometry x="-0.7119" y="-1" relative="1" as="geometry">
            <mxPoint as="offset" />
          </mxGeometry>
        </mxCell>
        <mxCell id="GLNDbX2-uQOJpAZanGDr-13" style="edgeStyle=orthogonalEdgeStyle;rounded=0;orthogonalLoop=1;jettySize=auto;html=1;" edge="1" parent="1" source="GLNDbX2-uQOJpAZanGDr-14" target="GLNDbX2-uQOJpAZanGDr-19">
          <mxGeometry relative="1" as="geometry" />
        </mxCell>
        <mxCell id="GLNDbX2-uQOJpAZanGDr-14" value="&lt;font style=&quot;font-size: 10px; font-weight: normal;&quot;&gt;if forcing_files frame length&lt;/font&gt;&lt;div&gt;&lt;font style=&quot;font-size: 10px; font-weight: normal;&quot;&gt;&amp;lt; model-timestep&amp;nbsp;&lt;/font&gt;&lt;/div&gt;" style="rhombus;whiteSpace=wrap;html=1;rounded=1;fontStyle=1;fillColor=#F19C99;" vertex="1" parent="1">
          <mxGeometry x="66.54999999999995" y="1631" width="227.81" height="70" as="geometry" />
        </mxCell>
        <mxCell id="GLNDbX2-uQOJpAZanGDr-15" value="Print error and exit" style="whiteSpace=wrap;html=1;fillColor=#FFFFFF;rounded=1;fontStyle=1;" vertex="1" parent="1">
          <mxGeometry x="328.26" y="1648.5" width="97.48" height="35" as="geometry" />
        </mxCell>
        <mxCell id="GLNDbX2-uQOJpAZanGDr-16" style="edgeStyle=orthogonalEdgeStyle;rounded=0;orthogonalLoop=1;jettySize=auto;html=1;entryX=0;entryY=0.5;entryDx=0;entryDy=0;" edge="1" parent="1" source="GLNDbX2-uQOJpAZanGDr-19" target="GLNDbX2-uQOJpAZanGDr-20">
          <mxGeometry relative="1" as="geometry" />
        </mxCell>
        <mxCell id="GLNDbX2-uQOJpAZanGDr-17" value="True" style="edgeLabel;html=1;align=center;verticalAlign=middle;resizable=0;points=[];" vertex="1" connectable="0" parent="GLNDbX2-uQOJpAZanGDr-16">
          <mxGeometry x="0.3813" y="3" relative="1" as="geometry">
            <mxPoint y="1" as="offset" />
          </mxGeometry>
        </mxCell>
        <mxCell id="GLNDbX2-uQOJpAZanGDr-18" value="" style="edgeStyle=orthogonalEdgeStyle;rounded=0;orthogonalLoop=1;jettySize=auto;html=1;" edge="1" parent="1" source="GLNDbX2-uQOJpAZanGDr-19" target="GLNDbX2-uQOJpAZanGDr-24">
          <mxGeometry relative="1" as="geometry" />
        </mxCell>
        <mxCell id="GLNDbX2-uQOJpAZanGDr-19" value="&lt;font style=&quot;font-size: 10px; font-weight: normal;&quot;&gt;if forcing_files frame length&lt;/font&gt;&lt;div&gt;&lt;font style=&quot;font-size: 10px; font-weight: normal;&quot;&gt;mod model-timestep /= 0&amp;nbsp;&lt;/font&gt;&lt;/div&gt;" style="rhombus;whiteSpace=wrap;html=1;rounded=1;fontStyle=1;fillColor=#F19C99;" vertex="1" parent="1">
          <mxGeometry x="66.54999999999995" y="1722.5" width="227.81" height="70" as="geometry" />
        </mxCell>
        <mxCell id="GLNDbX2-uQOJpAZanGDr-20" value="Print error and exit" style="whiteSpace=wrap;html=1;fillColor=#FFFFFF;rounded=1;fontStyle=1;" vertex="1" parent="1">
          <mxGeometry x="328.26" y="1740" width="97.48" height="35" as="geometry" />
        </mxCell>
        <mxCell id="GLNDbX2-uQOJpAZanGDr-21" value="" style="edgeStyle=orthogonalEdgeStyle;rounded=0;orthogonalLoop=1;jettySize=auto;html=1;exitX=0.935;exitY=0.478;exitDx=0;exitDy=0;exitPerimeter=0;" edge="1" parent="1" source="GLNDbX2-uQOJpAZanGDr-24" target="GLNDbX2-uQOJpAZanGDr-25">
          <mxGeometry relative="1" as="geometry" />
        </mxCell>
        <mxCell id="GLNDbX2-uQOJpAZanGDr-22" value="True" style="edgeLabel;html=1;align=center;verticalAlign=middle;resizable=0;points=[];" vertex="1" connectable="0" parent="GLNDbX2-uQOJpAZanGDr-21">
          <mxGeometry x="-0.3993" relative="1" as="geometry">
            <mxPoint as="offset" />
          </mxGeometry>
        </mxCell>
        <mxCell id="GLNDbX2-uQOJpAZanGDr-23" value="" style="edgeStyle=orthogonalEdgeStyle;rounded=0;orthogonalLoop=1;jettySize=auto;html=1;" edge="1" parent="1" source="GLNDbX2-uQOJpAZanGDr-24" target="GLNDbX2-uQOJpAZanGDr-28">
          <mxGeometry relative="1" as="geometry" />
        </mxCell>
        <mxCell id="GLNDbX2-uQOJpAZanGDr-24" value="&lt;span style=&quot;font-weight: normal;&quot;&gt;&lt;font style=&quot;font-size: 12px;&quot;&gt;If the start time of the file (t0) &amp;lt;&lt;/font&gt;&lt;/span&gt;&lt;div&gt;&lt;span style=&quot;font-weight: normal;&quot;&gt;&lt;font style=&quot;font-size: 12px;&quot;&gt;&amp;nbsp;than the simulation start time (t1)&lt;/font&gt;&lt;/span&gt;&lt;/div&gt;" style="rhombus;whiteSpace=wrap;html=1;rounded=1;fontStyle=1;fillColor=#F19C99;" vertex="1" parent="1">
          <mxGeometry x="51.23000000000002" y="1821" width="258.45" height="90" as="geometry" />
        </mxCell>
        <mxCell id="GLNDbX2-uQOJpAZanGDr-25" value="&lt;span style=&quot;font-weight: normal;&quot;&gt;- Calculate numbers of record to skip&lt;/span&gt;&lt;div&gt;&lt;span style=&quot;font-weight: normal;&quot;&gt;- Skip records by calling&amp;nbsp;&lt;/span&gt;&lt;/div&gt;&lt;div&gt;&lt;span style=&quot;font-weight: 400;&quot;&gt;call read_frame_from_file(forcing_files(i)%file&lt;/span&gt;&lt;br&gt;&lt;/div&gt;" style="whiteSpace=wrap;html=1;fillColor=#FFFFFF;rounded=1;fontStyle=1;" vertex="1" parent="1">
          <mxGeometry x="351.26" y="1829" width="247.95" height="70" as="geometry" />
        </mxCell>
        <mxCell id="GLNDbX2-uQOJpAZanGDr-26" value="" style="edgeStyle=orthogonalEdgeStyle;rounded=0;orthogonalLoop=1;jettySize=auto;html=1;exitX=0.973;exitY=0.5;exitDx=0;exitDy=0;exitPerimeter=0;" edge="1" parent="1" source="GLNDbX2-uQOJpAZanGDr-28" target="GLNDbX2-uQOJpAZanGDr-29">
          <mxGeometry relative="1" as="geometry" />
        </mxCell>
        <mxCell id="GLNDbX2-uQOJpAZanGDr-27" value="True" style="edgeLabel;html=1;align=center;verticalAlign=middle;resizable=0;points=[];" vertex="1" connectable="0" parent="GLNDbX2-uQOJpAZanGDr-26">
          <mxGeometry x="-0.5681" y="1" relative="1" as="geometry">
            <mxPoint as="offset" />
          </mxGeometry>
        </mxCell>
        <mxCell id="GLNDbX2-uQOJpAZanGDr-28" value="&lt;span style=&quot;font-weight: normal;&quot;&gt;If interpolation is enabled&lt;br&gt;&lt;/span&gt;" style="rhombus;whiteSpace=wrap;html=1;fillColor=#F19C99;rounded=1;fontStyle=1;" vertex="1" parent="1">
          <mxGeometry x="63.56999999999999" y="1935" width="233.77" height="50" as="geometry" />
        </mxCell>
        <mxCell id="GLNDbX2-uQOJpAZanGDr-29" value="&lt;span style=&quot;font-weight: normal;&quot;&gt;call read_input_forcing_frame_from_file&lt;/span&gt;&lt;div&gt;&lt;span style=&quot;font-weight: normal;&quot;&gt;(forcing_files(i)%file)&lt;/span&gt;&lt;/div&gt;" style="whiteSpace=wrap;html=1;fillColor=#FFE599;rounded=1;fontStyle=1;" vertex="1" parent="1">
          <mxGeometry x="364.33" y="1930" width="221.82" height="60" as="geometry" />
        </mxCell>
        <mxCell id="GLNDbX2-uQOJpAZanGDr-30" style="edgeStyle=orthogonalEdgeStyle;rounded=0;orthogonalLoop=1;jettySize=auto;html=1;entryX=0.5;entryY=0;entryDx=0;entryDy=0;" edge="1" parent="1" source="GLNDbX2-uQOJpAZanGDr-7" target="GLNDbX2-uQOJpAZanGDr-5">
          <mxGeometry relative="1" as="geometry" />
        </mxCell>
        <mxCell id="GLNDbX2-uQOJpAZanGDr-31" style="edgeStyle=orthogonalEdgeStyle;rounded=0;orthogonalLoop=1;jettySize=auto;html=1;exitX=0.5;exitY=1;exitDx=0;exitDy=0;" edge="1" parent="1" source="GLNDbX2-uQOJpAZanGDr-32" target="GLNDbX2-uQOJpAZanGDr-36">
          <mxGeometry relative="1" as="geometry">
            <mxPoint x="801" y="1460" as="sourcePoint" />
          </mxGeometry>
        </mxCell>
        <mxCell id="GLNDbX2-uQOJpAZanGDr-32" value="&amp;nbsp;read_input_forcing_frame_from_file(input_file)" style="whiteSpace=wrap;html=1;fillColor=#FFFFFF;rounded=1;fontStyle=1;" vertex="1" parent="1">
          <mxGeometry x="645.9" y="1420" width="310" height="30" as="geometry" />
        </mxCell>
        <mxCell id="GLNDbX2-uQOJpAZanGDr-33" value="" style="edgeStyle=orthogonalEdgeStyle;rounded=0;orthogonalLoop=1;jettySize=auto;html=1;" edge="1" parent="1" source="GLNDbX2-uQOJpAZanGDr-36" target="GLNDbX2-uQOJpAZanGDr-40">
          <mxGeometry relative="1" as="geometry">
            <Array as="points">
              <mxPoint x="940" y="1560" />
              <mxPoint x="940" y="1560" />
            </Array>
          </mxGeometry>
        </mxCell>
        <mxCell id="GLNDbX2-uQOJpAZanGDr-34" value="True" style="edgeLabel;html=1;align=center;verticalAlign=middle;resizable=0;points=[];" vertex="1" connectable="0" parent="GLNDbX2-uQOJpAZanGDr-33">
          <mxGeometry x="-0.2335" relative="1" as="geometry">
            <mxPoint as="offset" />
          </mxGeometry>
        </mxCell>
        <mxCell id="GLNDbX2-uQOJpAZanGDr-35" style="edgeStyle=orthogonalEdgeStyle;rounded=0;orthogonalLoop=1;jettySize=auto;html=1;" edge="1" parent="1" source="GLNDbX2-uQOJpAZanGDr-36" target="GLNDbX2-uQOJpAZanGDr-38">
          <mxGeometry relative="1" as="geometry" />
        </mxCell>
        <mxCell id="GLNDbX2-uQOJpAZanGDr-36" value="&lt;span style=&quot;font-size: 10px;&quot;&gt;if (input_file%istep == 1)&lt;/span&gt;" style="rhombus;whiteSpace=wrap;html=1;rounded=1;fontStyle=1;fillColor=#F19C99;" vertex="1" parent="1">
          <mxGeometry x="707.91" y="1530" width="185.99" height="60" as="geometry" />
        </mxCell>
        <mxCell id="GLNDbX2-uQOJpAZanGDr-37" value="" style="edgeStyle=orthogonalEdgeStyle;rounded=0;orthogonalLoop=1;jettySize=auto;html=1;" edge="1" parent="1" source="GLNDbX2-uQOJpAZanGDr-38" target="GLNDbX2-uQOJpAZanGDr-55">
          <mxGeometry relative="1" as="geometry" />
        </mxCell>
        <mxCell id="GLNDbX2-uQOJpAZanGDr-38" value="&lt;span style=&quot;font-size: 10px;&quot;&gt;if (input_file%istep == 1)&lt;/span&gt;" style="rhombus;whiteSpace=wrap;html=1;rounded=1;fontStyle=1;fillColor=#F19C99;" vertex="1" parent="1">
          <mxGeometry x="707.91" y="1723" width="185.99" height="60" as="geometry" />
        </mxCell>
        <mxCell id="GLNDbX2-uQOJpAZanGDr-39" value="" style="group" vertex="1" connectable="0" parent="1">
          <mxGeometry x="940" y="1450" width="390" height="248.5" as="geometry" />
        </mxCell>
        <mxCell id="GLNDbX2-uQOJpAZanGDr-40" value="" style="whiteSpace=wrap;html=1;fillColor=#FFFFFF;rounded=1;fontStyle=1;" vertex="1" parent="GLNDbX2-uQOJpAZanGDr-39">
          <mxGeometry width="390" height="248.5" as="geometry" />
        </mxCell>
        <mxCell id="GLNDbX2-uQOJpAZanGDr-41" value="&lt;span style=&quot;font-weight: normal;&quot;&gt;call read_frame_from_file(input_file&lt;/span&gt;" style="whiteSpace=wrap;html=1;fillColor=#FFE599;rounded=1;fontStyle=1;" vertex="1" parent="GLNDbX2-uQOJpAZanGDr-39">
          <mxGeometry x="200" y="21" width="175" height="35" as="geometry" />
        </mxCell>
        <mxCell id="GLNDbX2-uQOJpAZanGDr-42" value="" style="edgeStyle=orthogonalEdgeStyle;rounded=0;orthogonalLoop=1;jettySize=auto;html=1;" edge="1" parent="GLNDbX2-uQOJpAZanGDr-39" source="GLNDbX2-uQOJpAZanGDr-45" target="GLNDbX2-uQOJpAZanGDr-41">
          <mxGeometry relative="1" as="geometry" />
        </mxCell>
        <mxCell id="GLNDbX2-uQOJpAZanGDr-43" value="True" style="edgeLabel;html=1;align=center;verticalAlign=middle;resizable=0;points=[];" vertex="1" connectable="0" parent="GLNDbX2-uQOJpAZanGDr-42">
          <mxGeometry x="-0.2889" y="-2" relative="1" as="geometry">
            <mxPoint as="offset" />
          </mxGeometry>
        </mxCell>
        <mxCell id="GLNDbX2-uQOJpAZanGDr-44" style="edgeStyle=orthogonalEdgeStyle;rounded=0;orthogonalLoop=1;jettySize=auto;html=1;entryX=0.25;entryY=0;entryDx=0;entryDy=0;" edge="1" parent="GLNDbX2-uQOJpAZanGDr-39" source="GLNDbX2-uQOJpAZanGDr-45" target="GLNDbX2-uQOJpAZanGDr-47">
          <mxGeometry relative="1" as="geometry" />
        </mxCell>
        <mxCell id="GLNDbX2-uQOJpAZanGDr-45" value="&lt;span style=&quot;font-size: 10px;&quot;&gt;if (input_file%iblock == 1)&lt;/span&gt;" style="rhombus;whiteSpace=wrap;html=1;rounded=1;fontStyle=1;fillColor=#F19C99;" vertex="1" parent="GLNDbX2-uQOJpAZanGDr-39">
          <mxGeometry y="10.5" width="150" height="56" as="geometry" />
        </mxCell>
        <mxCell id="GLNDbX2-uQOJpAZanGDr-46" style="edgeStyle=orthogonalEdgeStyle;rounded=0;orthogonalLoop=1;jettySize=auto;html=1;exitX=0.25;exitY=1;exitDx=0;exitDy=0;entryX=0.5;entryY=0;entryDx=0;entryDy=0;" edge="1" parent="GLNDbX2-uQOJpAZanGDr-39" source="GLNDbX2-uQOJpAZanGDr-47" target="GLNDbX2-uQOJpAZanGDr-49">
          <mxGeometry relative="1" as="geometry" />
        </mxCell>
        <mxCell id="GLNDbX2-uQOJpAZanGDr-47" value="&lt;span style=&quot;font-weight: 400;&quot;&gt;call create_mapped_output_from_field_list&lt;/span&gt;&lt;div&gt;&lt;span style=&quot;font-weight: 400;&quot;&gt;(input_file%fields, input_file%iblock&lt;/span&gt;&lt;br&gt;&lt;/div&gt;" style="whiteSpace=wrap;html=1;fillColor=#FFE599;rounded=1;fontStyle=1;" vertex="1" parent="GLNDbX2-uQOJpAZanGDr-39">
          <mxGeometry x="10" y="92.5" width="260" height="36" as="geometry" />
        </mxCell>
        <mxCell id="GLNDbX2-uQOJpAZanGDr-48" style="edgeStyle=orthogonalEdgeStyle;rounded=0;orthogonalLoop=1;jettySize=auto;html=1;entryX=0;entryY=0.5;entryDx=0;entryDy=0;" edge="1" parent="GLNDbX2-uQOJpAZanGDr-39" source="GLNDbX2-uQOJpAZanGDr-49" target="GLNDbX2-uQOJpAZanGDr-50">
          <mxGeometry relative="1" as="geometry" />
        </mxCell>
        <mxCell id="GLNDbX2-uQOJpAZanGDr-49" value="&lt;span style=&quot;font-size: 10px;&quot;&gt;if no error &amp;amp; Temporal interpolation enabled&amp;nbsp;&lt;/span&gt;" style="rhombus;whiteSpace=wrap;html=1;rounded=1;fontStyle=1;fillColor=#F19C99;" vertex="1" parent="GLNDbX2-uQOJpAZanGDr-39">
          <mxGeometry x="5" y="147" width="150" height="70" as="geometry" />
        </mxCell>
        <mxCell id="GLNDbX2-uQOJpAZanGDr-50" value="" style="rounded=0;whiteSpace=wrap;html=1;" vertex="1" parent="GLNDbX2-uQOJpAZanGDr-39">
          <mxGeometry x="181.58999999999992" y="142" width="197.5" height="80" as="geometry" />
        </mxCell>
        <mxCell id="GLNDbX2-uQOJpAZanGDr-51" value="&lt;font style=&quot;font-size: 9px;&quot;&gt;do j = 1, size(input_file%fields)&lt;/font&gt;" style="text;html=1;align=center;verticalAlign=middle;whiteSpace=wrap;rounded=0;" vertex="1" parent="GLNDbX2-uQOJpAZanGDr-39">
          <mxGeometry x="181.58999999999992" y="138.5" width="135" height="30" as="geometry" />
        </mxCell>
        <mxCell id="GLNDbX2-uQOJpAZanGDr-52" value="&lt;span style=&quot;font-weight: normal;&quot;&gt;&lt;font style=&quot;font-size: 10px;&quot;&gt;Shift interpolation data from second column to first and vice versa&lt;/font&gt;&lt;/span&gt;" style="whiteSpace=wrap;html=1;fillColor=#FFFFFF;rounded=1;fontStyle=1;" vertex="1" parent="GLNDbX2-uQOJpAZanGDr-39">
          <mxGeometry x="192.83999999999992" y="174.5" width="175" height="37.5" as="geometry" />
        </mxCell>
        <mxCell id="GLNDbX2-uQOJpAZanGDr-53" style="edgeStyle=orthogonalEdgeStyle;rounded=0;orthogonalLoop=1;jettySize=auto;html=1;entryX=0.015;entryY=0.308;entryDx=0;entryDy=0;entryPerimeter=0;" edge="1" parent="1" source="GLNDbX2-uQOJpAZanGDr-38" target="GLNDbX2-uQOJpAZanGDr-57">
          <mxGeometry relative="1" as="geometry" />
        </mxCell>
        <mxCell id="GLNDbX2-uQOJpAZanGDr-54" style="edgeStyle=orthogonalEdgeStyle;rounded=0;orthogonalLoop=1;jettySize=auto;html=1;entryX=0.5;entryY=0;entryDx=0;entryDy=0;" edge="1" parent="1" source="GLNDbX2-uQOJpAZanGDr-55" target="GLNDbX2-uQOJpAZanGDr-61">
          <mxGeometry relative="1" as="geometry" />
        </mxCell>
        <mxCell id="GLNDbX2-uQOJpAZanGDr-55" value="&lt;span style=&quot;font-weight: normal;&quot;&gt;call assign_variables_from_field_list(input_file%fields&lt;/span&gt;" style="whiteSpace=wrap;html=1;fillColor=#FFE599;rounded=1;fontStyle=1;" vertex="1" parent="1">
          <mxGeometry x="636.36" y="1858" width="329.09" height="40" as="geometry" />
        </mxCell>
        <mxCell id="GLNDbX2-uQOJpAZanGDr-56" value="" style="group" vertex="1" connectable="0" parent="1">
          <mxGeometry x="965.45" y="1712.5" width="282.15999999999997" height="130" as="geometry" />
        </mxCell>
        <mxCell id="GLNDbX2-uQOJpAZanGDr-57" value="" style="rounded=0;whiteSpace=wrap;html=1;" vertex="1" parent="GLNDbX2-uQOJpAZanGDr-56">
          <mxGeometry width="282.16" height="130" as="geometry" />
        </mxCell>
        <mxCell id="GLNDbX2-uQOJpAZanGDr-58" value="do j = 1, size(input_file%fields)" style="text;html=1;align=center;verticalAlign=middle;whiteSpace=wrap;rounded=0;" vertex="1" parent="GLNDbX2-uQOJpAZanGDr-56">
          <mxGeometry width="178.41" height="30" as="geometry" />
        </mxCell>
        <mxCell id="GLNDbX2-uQOJpAZanGDr-59" value="&lt;div&gt;&lt;span style=&quot;font-weight: 400;&quot;&gt;Computer interpolaton values for each field using formula:&lt;/span&gt;&lt;/div&gt;&lt;div&gt;&lt;span style=&quot;background-color: initial; font-weight: 400;&quot;&gt;Interpolated Value=Previous Value+w⋅(Current Value−Previous Value)&lt;/span&gt;&lt;/div&gt;" style="whiteSpace=wrap;html=1;fillColor=#FFFFFF;rounded=1;fontStyle=1;" vertex="1" parent="GLNDbX2-uQOJpAZanGDr-56">
          <mxGeometry x="8.409999999999968" y="40" width="260" height="80" as="geometry" />
        </mxCell>
        <mxCell id="GLNDbX2-uQOJpAZanGDr-60" value="" style="edgeStyle=orthogonalEdgeStyle;rounded=0;orthogonalLoop=1;jettySize=auto;html=1;" edge="1" parent="1" source="GLNDbX2-uQOJpAZanGDr-61" target="GLNDbX2-uQOJpAZanGDr-63">
          <mxGeometry relative="1" as="geometry" />
        </mxCell>
        <mxCell id="GLNDbX2-uQOJpAZanGDr-61" value="&lt;span style=&quot;font-weight: 400;&quot;&gt;Increment block counter&lt;/span&gt;" style="whiteSpace=wrap;html=1;fillColor=#FFFFFF;rounded=1;fontStyle=1;" vertex="1" parent="1">
          <mxGeometry x="728.85" y="1928" width="144.1" height="31" as="geometry" />
        </mxCell>
        <mxCell id="GLNDbX2-uQOJpAZanGDr-62" style="edgeStyle=orthogonalEdgeStyle;rounded=0;orthogonalLoop=1;jettySize=auto;html=1;entryX=0.5;entryY=0;entryDx=0;entryDy=0;" edge="1" parent="1" source="GLNDbX2-uQOJpAZanGDr-63" target="GLNDbX2-uQOJpAZanGDr-65">
          <mxGeometry relative="1" as="geometry" />
        </mxCell>
        <mxCell id="GLNDbX2-uQOJpAZanGDr-63" value="&lt;span style=&quot;font-weight: normal;&quot;&gt;Increment the interval timer&lt;/span&gt;" style="whiteSpace=wrap;html=1;fillColor=#FFFFFF;rounded=1;fontStyle=1;" vertex="1" parent="1">
          <mxGeometry x="716.36" y="1984" width="169.09" height="30" as="geometry" />
        </mxCell>
        <mxCell id="GLNDbX2-uQOJpAZanGDr-64" style="edgeStyle=orthogonalEdgeStyle;rounded=0;orthogonalLoop=1;jettySize=auto;html=1;entryX=0.5;entryY=0;entryDx=0;entryDy=0;" edge="1" parent="1" source="GLNDbX2-uQOJpAZanGDr-65" target="GLNDbX2-uQOJpAZanGDr-66">
          <mxGeometry relative="1" as="geometry" />
        </mxCell>
        <mxCell id="GLNDbX2-uQOJpAZanGDr-65" value="&lt;span style=&quot;font-weight: normal;&quot;&gt;Reset interval if needed&lt;/span&gt;" style="whiteSpace=wrap;html=1;fillColor=#FFFFFF;rounded=1;fontStyle=1;" vertex="1" parent="1">
          <mxGeometry x="716.36" y="2040" width="169.09" height="30" as="geometry" />
        </mxCell>
        <mxCell id="GLNDbX2-uQOJpAZanGDr-66" value="&lt;span style=&quot;font-weight: 400;&quot;&gt;end subroutine&lt;/span&gt;" style="whiteSpace=wrap;html=1;fillColor=#FFFFFF;rounded=1;fontStyle=1;" vertex="1" parent="1">
          <mxGeometry x="740.9" y="2096" width="120" height="40" as="geometry" />
        </mxCell>
      </root>
    </mxGraphModel>
  </diagram>
</mxfile>
